<?xml version="1.0" encoding="UTF-8"?>
<svg id="_レイヤー_1" data-name="レイヤー_1" xmlns="http://www.w3.org/2000/svg" version="1.1" viewBox="0 0 178.74 16.45">
  <!-- Generator: Adobe Illustrator 29.8.1, SVG Export Plug-In . SVG Version: 2.1.1 Build 2)  -->
  <defs>
    <style>
      .st0 {
        fill: #fff;
      }
    </style>
  </defs>
  <path class="st0" d="M1.31,11.22l-.06,1.36c0,.14-.08.19-.19.19H.19c-.11,0-.19-.06-.19-.19V.26C0,.14.08.08.19.08h.99c.11,0,.18.06.18.18v5.43c.62-1.01,1.78-1.62,3.07-1.62,2.51,0,4.1,1.84,4.1,4.43s-1.58,4.45-4.1,4.45c-1.33,0-2.5-.67-3.12-1.73ZM7.12,8.5c0-1.9-1.2-3.19-2.93-3.19s-2.94,1.28-2.94,3.19,1.2,3.19,2.94,3.19,2.93-1.28,2.93-3.19Z"/>
  <path class="st0" d="M11.7,16.26l1.52-3.78-3.52-8.05c-.06-.14,0-.21.13-.21h1.18c.1,0,.18.03.22.14l2.69,6.45,2.55-6.45c.06-.11.13-.14.21-.14h1.1c.13,0,.18.1.13.21l-4.8,11.89c-.05.1-.11.13-.22.13h-1.04c-.13,0-.18-.08-.14-.19Z"/>
  <path class="st0" d="M25.28,12.74V.46c0-.14.08-.22.22-.22h4.23c4.23,0,6.43,2.35,6.43,6.37s-2.21,6.35-6.43,6.35h-4.23c-.14,0-.22-.08-.22-.22ZM33.73,6.61c0-2.67-1.44-4.16-4.26-4.16h-1.86v8.31h1.86c2.82,0,4.26-1.49,4.26-4.15Z"/>
  <path class="st0" d="M38.51,12.74V.46c0-.14.08-.22.22-.22h1.89c.13,0,.22.08.22.22v12.28c0,.14-.1.22-.22.22h-1.89c-.14,0-.22-.08-.22-.22Z"/>
  <path class="st0" d="M47.58,12.79L42.61.5s-.03-.06-.03-.1c0-.1.08-.16.21-.16h2.18c.13,0,.22.05.26.18l3.46,9.3L52.1.42c.03-.13.14-.18.27-.18h2.14c.16,0,.24.11.18.26l-4.98,12.29c-.05.13-.14.18-.26.18h-1.62c-.13,0-.21-.05-.26-.18Z"/>
  <path class="st0" d="M56.46,12.74V.46c0-.14.08-.22.22-.22h8.04c.14,0,.22.08.22.22v1.76c0,.13-.08.22-.22.22h-5.92v2.88h5.35c.14,0,.24.1.24.24v1.71c0,.13-.1.22-.24.22h-5.35v3.25h6.13c.14,0,.22.1.22.24v1.75c0,.14-.08.22-.22.22h-8.24c-.14,0-.22-.08-.22-.22Z"/>
  <path class="st0" d="M67.2,12.74V.46c0-.14.08-.22.22-.22h3.84c3.52,0,5.04,1.57,5.04,4.43,0,1.57-.59,2.88-1.86,3.68l2.38,4.34s.03.08.03.11c0,.1-.06.16-.19.16h-2.13c-.13,0-.21-.05-.26-.16l-2.05-3.75c-.32.03-.62.06-.98.06h-1.73v3.62c0,.14-.1.22-.22.22h-1.89c-.14,0-.22-.08-.22-.22ZM73.89,4.67c0-1.58-.86-2.27-2.71-2.27h-1.65v4.55h1.65c1.84,0,2.71-.67,2.71-2.27Z"/>
  <path class="st0" d="M84.05,6.61c0-4,2.71-6.61,6.4-6.61s6.42,2.61,6.42,6.61-2.71,6.59-6.42,6.59-6.4-2.61-6.4-6.59ZM90.45,10.92c2.45,0,3.99-1.79,3.99-4.31s-1.54-4.32-3.99-4.32-3.99,1.81-3.99,4.32,1.55,4.31,3.99,4.31Z"/>
  <path class="st0" d="M98.4,9.84s-.02-.06-.02-.1c0-.1.06-.14.16-.18l1.81-.43s.06-.02.08-.02c.1,0,.16.06.19.16.46,1.12,1.18,1.63,2.48,1.63s2.06-.4,2.06-1.34-.78-1.42-2.08-1.89l-1.12-.4c-2.03-.7-3.27-1.89-3.27-3.71,0-2.08,1.86-3.57,4.27-3.57,2.13,0,3.71.99,4.35,3.11.02.03.02.06.02.1,0,.08-.06.14-.16.18l-1.9.48s-.06.02-.1.02c-.08,0-.14-.06-.19-.16-.42-1.04-1.07-1.42-2.02-1.42-1.12,0-1.84.46-1.84,1.22s.66,1.31,2.15,1.81l.9.3c2.3.75,3.42,1.86,3.42,3.95s-1.84,3.63-4.5,3.63c-2.37,0-4.03-1.15-4.71-3.36Z"/>
  <path class="st0" d="M109.58,12.74V.46c0-.14.08-.22.22-.22h1.89c.13,0,.22.08.22.22v12.28c0,.14-.1.22-.22.22h-1.89c-.14,0-.22-.08-.22-.22Z"/>
  <path class="st0" d="M114.68,12.74V.46c0-.14.08-.22.22-.22h1.99c.13,0,.21.05.29.16l5.68,8.79V.46c0-.14.08-.22.22-.22h1.81c.13,0,.22.08.22.22v12.28c0,.14-.1.22-.22.22h-1.98c-.13,0-.21-.05-.27-.16l-5.71-8.8v8.74c0,.14-.08.22-.22.22h-1.79c-.14,0-.22-.08-.22-.22Z"/>
  <path class="st0" d="M131.15,12.74V2.45h-3.94c-.13,0-.21-.1-.21-.22V.46c0-.14.08-.22.21-.22h10.2c.14,0,.22.08.22.22v1.76c0,.13-.08.22-.22.22h-3.91v10.29c0,.14-.1.22-.24.22h-1.89c-.13,0-.22-.08-.22-.22Z"/>
  <path class="st0" d="M144.65,6.61c0-4.02,2.59-6.61,6.24-6.61,2.66,0,4.59,1.25,5.44,3.41.02.03.02.06.02.1,0,.11-.05.18-.16.21l-1.94.53c-.08,0-.16-.05-.19-.14-.61-1.17-1.7-1.81-3.14-1.81-2.43,0-3.86,1.71-3.86,4.32s1.44,4.31,3.86,4.31c1.62,0,2.83-.75,3.41-2.35.05-.14.14-.19.27-.16l1.84.53c.14.03.19.11.16.22-.67,2.38-2.66,4.05-5.76,4.05-3.71,0-6.19-2.59-6.19-6.59Z"/>
  <path class="st0" d="M162.14,12.74V2.45h-3.94c-.13,0-.21-.1-.21-.22V.46c0-.14.08-.22.21-.22h10.2c.14,0,.22.08.22.22v1.76c0,.13-.08.22-.22.22h-3.91v10.29c0,.14-.1.22-.24.22h-1.89c-.13,0-.22-.08-.22-.22Z"/>
  <path class="st0" d="M170.54,12.74V.46c0-.14.08-.22.22-.22h7.75c.13,0,.22.08.22.22v1.76c0,.13-.1.22-.22.22h-5.63v3.28h4.85c.14,0,.22.1.22.22v1.76c0,.14-.08.22-.22.22h-4.85v4.8c0,.14-.1.22-.22.22h-1.89c-.14,0-.22-.08-.22-.22Z"/>
</svg>