<?xml version="1.0" encoding="UTF-8"?>
<svg id="_レイヤー_1" data-name="レイヤー_1" xmlns="http://www.w3.org/2000/svg" version="1.1" viewBox="0 0 405.17 28.05">
  <!-- Generator: Adobe Illustrator 29.8.1, SVG Export Plug-In . SVG Version: 2.1.1 Build 2)  -->
  <defs>
    <style>
      .st0 {
        fill: #fff;
      }
    </style>
  </defs>
  <path class="st0" d="M.03,20.91c-.03-.07-.03-.14-.03-.2,0-.2.14-.31.34-.37l3.84-.92c.07-.03.14-.03.17-.03.2,0,.34.14.41.34.99,2.38,2.52,3.47,5.27,3.47s4.39-.85,4.39-2.86-1.67-3.03-4.42-4.01l-2.38-.85C3.3,13.97.68,11.46.68,7.58.68,3.16,4.62,0,9.76,0c4.52,0,7.89,2.11,9.25,6.6.03.07.03.14.03.2,0,.17-.14.31-.34.37l-4.04,1.02c-.07.03-.14.03-.2.03-.17,0-.31-.14-.41-.34-.88-2.21-2.28-3.03-4.28-3.03-2.38,0-3.91.99-3.91,2.58s1.39,2.79,4.56,3.84l1.9.65c4.9,1.6,7.28,3.94,7.28,8.4s-3.91,7.72-9.55,7.72C5,28.05,1.46,25.6.03,20.91Z"/>
  <path class="st0" d="M31.04,27.16L21.62,1.05c-.03-.07-.03-.14-.03-.17,0-.24.17-.37.44-.37h4.66c.27,0,.44.1.51.41l5.95,18.22L39.13.92c.07-.31.27-.41.51-.41h3.33c.24,0,.44.1.51.41l6.02,18.26L55.45.92c.07-.31.27-.41.51-.41h4.56c.34,0,.54.24.41.54l-9.42,26.11c-.07.27-.31.37-.54.37h-3.4c-.24,0-.44-.1-.51-.41l-5.78-17.61-5.78,17.61c-.07.31-.27.41-.51.41h-3.4c-.24,0-.48-.1-.54-.37Z"/>
  <path class="st0" d="M64.67,27.06V.99c0-.31.17-.48.48-.48h4.01c.27,0,.48.17.48.48v26.08c0,.31-.2.48-.48.48h-4.01c-.31,0-.48-.17-.48-.48Z"/>
  <path class="st0" d="M75.51,27.06V.99c0-.31.17-.48.48-.48h4.22c.27,0,.44.1.58.34l9.35,15.54L99.34.85c.14-.24.31-.34.58-.34h4.11c.31,0,.48.17.48.48v26.08c0,.31-.17.48-.48.48h-3.84c-.27,0-.48-.17-.48-.48V8.81l-7.92,13.26c-.1.2-.27.31-.54.31h-2.48c-.27,0-.44-.1-.58-.31l-7.92-13.09v18.09c0,.31-.17.48-.48.48h-3.81c-.31,0-.48-.17-.48-.48Z"/>
  <path class="st0" d="M110.43,27.06V.99c0-.31.17-.48.48-.48h4.22c.27,0,.44.1.58.34l9.35,15.54,9.21-15.54c.14-.24.31-.34.58-.34h4.11c.31,0,.48.17.48.48v26.08c0,.31-.17.48-.48.48h-3.84c-.27,0-.48-.17-.48-.48V8.81l-7.92,13.26c-.1.2-.27.31-.54.31h-2.48c-.27,0-.44-.1-.58-.31l-7.92-13.09v18.09c0,.31-.17.48-.48.48h-3.81c-.31,0-.48-.17-.48-.48Z"/>
  <path class="st0" d="M145.35,27.06V.99c0-.31.17-.48.48-.48h17.07c.31,0,.48.17.48.48v3.74c0,.27-.17.48-.48.48h-12.58v6.12h11.36c.31,0,.51.2.51.51v3.64c0,.27-.2.48-.51.48h-11.36v6.9h13.02c.31,0,.48.2.48.51v3.71c0,.31-.17.48-.48.48h-17.51c-.31,0-.48-.17-.48-.48Z"/>
  <path class="st0" d="M168.16,27.06V.99c0-.31.17-.48.48-.48h8.16c7.48,0,10.71,3.33,10.71,9.42,0,3.33-1.26,6.12-3.94,7.82l5.07,9.21c.03.1.07.17.07.24,0,.2-.14.34-.41.34h-4.52c-.27,0-.44-.1-.54-.34l-4.35-7.96c-.68.07-1.33.14-2.07.14h-3.67v7.68c0,.31-.2.48-.48.48h-4.01c-.31,0-.48-.17-.48-.48ZM182.37,9.93c0-3.37-1.84-4.83-5.75-4.83h-3.5v9.65h3.5c3.91,0,5.75-1.43,5.75-4.83Z"/>
  <path class="st0" d="M203.96,14.04c0-8.5,5.75-14.04,13.6-14.04s13.63,5.54,13.63,14.04-5.75,14.01-13.63,14.01-13.6-5.54-13.6-14.01ZM217.56,23.19c5.2,0,8.46-3.81,8.46-9.15s-3.26-9.18-8.46-9.18-8.47,3.84-8.47,9.18,3.3,9.15,8.47,9.15Z"/>
  <path class="st0" d="M234.46,20.91c-.03-.07-.03-.14-.03-.2,0-.2.14-.31.34-.37l3.84-.92c.07-.03.14-.03.17-.03.2,0,.34.14.41.34.99,2.38,2.52,3.47,5.27,3.47s4.39-.85,4.39-2.86-1.67-3.03-4.42-4.01l-2.38-.85c-4.32-1.5-6.94-4.01-6.94-7.89,0-4.42,3.94-7.58,9.08-7.58,4.52,0,7.89,2.11,9.25,6.6.03.07.03.14.03.2,0,.17-.14.31-.34.37l-4.05,1.02c-.07.03-.14.03-.2.03-.17,0-.31-.14-.41-.34-.88-2.21-2.28-3.03-4.28-3.03-2.38,0-3.91.99-3.91,2.58s1.39,2.79,4.56,3.84l1.9.65c4.9,1.6,7.28,3.94,7.28,8.4s-3.91,7.72-9.55,7.72c-5.03,0-8.57-2.45-10-7.14Z"/>
  <path class="st0" d="M258.23,27.06V.99c0-.31.17-.48.48-.48h4.01c.27,0,.48.17.48.48v26.08c0,.31-.2.48-.48.48h-4.01c-.31,0-.48-.17-.48-.48Z"/>
  <path class="st0" d="M269.07,27.06V.99c0-.31.17-.48.48-.48h4.22c.27,0,.44.1.61.34l12.07,18.66V.99c0-.31.17-.48.48-.48h3.84c.27,0,.48.17.48.48v26.08c0,.31-.2.48-.48.48h-4.22c-.27,0-.44-.1-.58-.34l-12.14-18.7v18.56c0,.31-.17.48-.48.48h-3.81c-.31,0-.48-.17-.48-.48Z"/>
  <path class="st0" d="M304.06,27.06V5.2h-8.36c-.27,0-.44-.2-.44-.48V.99c0-.31.17-.48.44-.48h21.66c.31,0,.48.17.48.48v3.74c0,.27-.17.48-.48.48h-8.29v21.86c0,.31-.2.48-.51.48h-4.01c-.27,0-.48-.17-.48-.48Z"/>
  <path class="st0" d="M332.75,14.04c0-8.53,5.51-14.04,13.26-14.04,5.64,0,9.76,2.65,11.56,7.24.03.07.03.14.03.2,0,.24-.1.37-.34.44l-4.11,1.12c-.17,0-.34-.1-.41-.31-1.29-2.48-3.6-3.84-6.66-3.84-5.17,0-8.19,3.64-8.19,9.18s3.06,9.15,8.19,9.15c3.43,0,6.02-1.6,7.24-5,.1-.31.31-.41.58-.34l3.91,1.12c.31.07.41.24.34.48-1.43,5.07-5.64,8.6-12.24,8.6-7.89,0-13.16-5.51-13.16-14.01Z"/>
  <path class="st0" d="M369.92,27.06V5.2h-8.36c-.27,0-.44-.2-.44-.48V.99c0-.31.17-.48.44-.48h21.66c.31,0,.48.17.48.48v3.74c0,.27-.17.48-.48.48h-8.29v21.86c0,.31-.2.48-.51.48h-4.01c-.27,0-.48-.17-.48-.48Z"/>
  <path class="st0" d="M387.77,27.06V.99c0-.31.17-.48.48-.48h16.45c.27,0,.48.17.48.48v3.74c0,.27-.2.48-.48.48h-11.97v6.97h10.3c.31,0,.48.2.48.48v3.74c0,.31-.17.48-.48.48h-10.3v10.2c0,.31-.2.48-.48.48h-4.01c-.31,0-.48-.17-.48-.48Z"/>
</svg>