<?xml version="1.0" encoding="UTF-8"?>
<svg id="a" data-name="レイヤー 1" xmlns="http://www.w3.org/2000/svg" viewBox="0 0 782.42 67.3">
  <defs>
    <style>
      .b {
        fill: #fff;
      }
    </style>
  </defs>
  <path class="b" d="M0,64.93V2.37c0-.74.41-1.14,1.14-1.14h21.54c21.53,0,32.79,11.99,32.79,32.47s-11.26,32.38-32.79,32.38H1.14c-.73,0-1.14-.41-1.14-1.14ZM43.07,33.69c0-13.62-7.34-21.21-21.7-21.21h-9.46v42.33h9.46c14.36,0,21.7-7.58,21.7-21.13Z"/>
  <path class="b" d="M67.46,64.93V2.37c0-.74.41-1.14,1.14-1.14h9.63c.65,0,1.14.41,1.14,1.14v62.57c0,.73-.49,1.14-1.14,1.14h-9.63c-.74,0-1.14-.41-1.14-1.14Z"/>
  <path class="b" d="M113.72,65.18L88.35,2.53c-.08-.16-.16-.33-.16-.49,0-.49.41-.82,1.06-.82h11.09c.65,0,1.14.25,1.31.9l17.62,47.39L136.72,2.12c.16-.65.73-.9,1.39-.9h10.93c.82,0,1.22.57.9,1.31l-25.37,62.65c-.24.65-.73.9-1.31.9h-8.24c-.65,0-1.06-.24-1.31-.9Z"/>
  <path class="b" d="M159,64.93V2.37c0-.74.41-1.14,1.14-1.14h40.95c.73,0,1.14.41,1.14,1.14v8.97c0,.65-.41,1.14-1.14,1.14h-30.18v14.68h27.24c.74,0,1.23.49,1.23,1.22v8.73c0,.65-.49,1.14-1.23,1.14h-27.24v16.56h31.24c.74,0,1.14.49,1.14,1.22v8.89c0,.73-.41,1.14-1.14,1.14h-42.01c-.74,0-1.14-.41-1.14-1.14Z"/>
  <path class="b" d="M213.74,64.93V2.37c0-.74.41-1.14,1.14-1.14h19.58c17.95,0,25.7,7.99,25.7,22.6,0,7.99-3.02,14.68-9.46,18.76l12.16,22.11c.08.24.16.41.16.57,0,.49-.33.82-.98.82h-10.85c-.65,0-1.06-.24-1.31-.82l-10.44-19.09c-1.63.16-3.18.33-4.97.33h-8.81v18.44c0,.73-.49,1.14-1.14,1.14h-9.63c-.74,0-1.14-.41-1.14-1.14ZM247.83,23.82c0-8.07-4.41-11.58-13.78-11.58h-8.4v23.17h8.4c9.38,0,13.78-3.43,13.78-11.58Z"/>
  <path class="b" d="M299.64,33.69c0-20.39,13.78-33.69,32.63-33.69s32.71,13.3,32.71,33.69-13.79,33.61-32.71,33.61-32.63-13.3-32.63-33.61ZM332.27,55.63c12.48,0,20.31-9.14,20.31-21.94s-7.83-22.03-20.31-22.03-20.31,9.22-20.31,22.03,7.91,21.94,20.31,21.94Z"/>
  <path class="b" d="M372.82,50.17c-.08-.16-.08-.33-.08-.49,0-.49.33-.73.82-.9l9.22-2.2c.16-.08.33-.08.41-.08.49,0,.82.33.98.82,2.36,5.71,6.04,8.32,12.64,8.32s10.52-2.04,10.52-6.85-4-7.26-10.6-9.63l-5.71-2.04c-10.36-3.59-16.64-9.63-16.64-18.93,0-10.6,9.46-18.19,21.78-18.19,10.85,0,18.93,5.06,22.19,15.83.08.16.08.33.08.49,0,.41-.33.73-.82.9l-9.71,2.45c-.16.08-.33.08-.49.08-.41,0-.73-.33-.98-.82-2.12-5.3-5.46-7.26-10.28-7.26-5.71,0-9.38,2.37-9.38,6.2s3.34,6.69,10.93,9.22l4.57,1.55c11.75,3.84,17.46,9.46,17.46,20.15s-9.38,18.52-22.92,18.52c-12.07,0-20.56-5.87-23.98-17.13Z"/>
  <path class="b" d="M429.84,64.93V2.37c0-.74.41-1.14,1.14-1.14h9.63c.65,0,1.14.41,1.14,1.14v62.57c0,.73-.49,1.14-1.14,1.14h-9.63c-.74,0-1.14-.41-1.14-1.14Z"/>
  <path class="b" d="M455.86,64.93V2.37c0-.74.41-1.14,1.14-1.14h10.12c.65,0,1.06.25,1.47.82l28.96,44.78V2.37c0-.74.41-1.14,1.14-1.14h9.22c.65,0,1.14.41,1.14,1.14v62.57c0,.73-.49,1.14-1.14,1.14h-10.12c-.65,0-1.06-.24-1.39-.82l-29.12-44.86v44.54c0,.73-.41,1.14-1.14,1.14h-9.14c-.74,0-1.14-.41-1.14-1.14Z"/>
  <path class="b" d="M539.8,64.93V12.48h-20.07c-.65,0-1.06-.49-1.06-1.14V2.37c0-.74.41-1.14,1.06-1.14h51.96c.73,0,1.14.41,1.14,1.14v8.97c0,.65-.41,1.14-1.14,1.14h-19.9v52.45c0,.73-.49,1.14-1.23,1.14h-9.62c-.65,0-1.14-.41-1.14-1.14Z"/>
  <path class="b" d="M608.66,33.69c0-20.47,13.21-33.69,31.81-33.69,13.54,0,23.41,6.36,27.73,17.37.08.16.08.33.08.49,0,.57-.25.9-.82,1.06l-9.46,2.61-.41.08c-.41,0-.82-.25-.98-.74-3.1-5.95-8.65-9.22-15.99-9.22-12.4,0-19.66,8.73-19.66,22.03s7.34,21.94,19.66,21.94c8.24,0,14.44-3.83,17.37-11.99.25-.73.74-.98,1.39-.82l9.38,2.69c.73.16.98.57.82,1.14-3.43,12.15-13.54,20.64-29.37,20.64-18.92,0-31.57-13.22-31.57-33.61Z"/>
  <path class="b" d="M697.82,64.93V12.48h-20.07c-.65,0-1.06-.49-1.06-1.14V2.37c0-.74.41-1.14,1.06-1.14h51.96c.74,0,1.14.41,1.14,1.14v8.97c0,.65-.41,1.14-1.14,1.14h-19.9v52.45c0,.73-.49,1.14-1.22,1.14h-9.63c-.65,0-1.14-.41-1.14-1.14Z"/>
  <path class="b" d="M740.65,64.93V2.37c0-.74.41-1.14,1.14-1.14h39.48c.65,0,1.14.41,1.14,1.14v8.97c0,.65-.49,1.14-1.14,1.14h-28.71v16.72h24.72c.74,0,1.14.49,1.14,1.14v8.97c0,.73-.41,1.14-1.14,1.14h-24.72v24.47c0,.73-.49,1.14-1.14,1.14h-9.63c-.74,0-1.14-.41-1.14-1.14Z"/>
</svg>